<?xml version="1.0" encoding="utf-8"?>
<!-- Generator: Adobe Illustrator 26.3.1, SVG Export Plug-In . SVG Version: 6.00 Build 0)  -->
<svg version="1.1" id="Layer_1" xmlns="http://www.w3.org/2000/svg" xmlns:xlink="http://www.w3.org/1999/xlink" x="0px" y="0px"
	 viewBox="0 0 16 16" style="enable-background:new 0 0 16 16;" xml:space="preserve">
<style type="text/css">
	.st0{fill:#FFFFFF;}
</style>
<g>
	<rect x="6" y="12.5" class="st0" width="1.5" height="1.5"/>
	<rect x="6" y="1.8" class="st0" width="1.5" height="9.5"/>
	<path class="st0" d="M3.3,1.8H0v12.4h1.5v-3.3h1.8c1.1,0,1.5-0.5,1.5-2V4C4.7,2.4,4.4,1.8,3.3,1.8z M3.3,9.5H1.6V3.3h1.6V9.5z"/>
	<rect x="14.5" y="1.8" class="st0" width="1.5" height="9.5"/>
	<rect x="14.5" y="12.5" class="st0" width="1.5" height="1.5"/>
	<polygon class="st0" points="12,8 13.6,1.8 12,1.8 10.5,7.3 10.2,7.3 10.2,1.8 8.7,1.8 8.7,14 10.2,14 10.2,8.7 10.7,8.7 12.2,14 
		13.8,14.2 12,8.2 	"/>
</g>
</svg>
